<svg width="24" height="24" viewBox="0 0 24 24" fill="none" xmlns="http://www.w3.org/2000/svg">
<g clip-path="url(#clip0_5_4)">
<path fill-rule="evenodd" clip-rule="evenodd" d="M5.13584 11.552C5.81933 11.552 6.3734 10.9979 6.3734 10.3144V8.36523V7.67156L6.37339 7.66808C6.37339 6.95309 6.95301 6.37348 7.668 6.37348C7.69975 6.37348 7.73125 6.37463 7.76244 6.37687L7.76758 6.37354H8.41489H10.3143C10.9977 6.37354 11.5518 5.81947 11.5518 5.13599V1.23768C11.5518 0.554196 10.9977 0.000122471 10.3143 0.000122411L6.41594 0.00012207C5.73246 0.000122011 5.17839 0.554195 5.17839 1.23768V3.18683V3.67412V3.91777L5.17785 3.91817C5.16002 4.60602 4.60567 5.16036 3.91781 5.17815L3.91762 5.17852H3.89699C3.89256 5.17857 3.88813 5.17859 3.88369 5.17859C3.87925 5.17859 3.87482 5.17857 3.87039 5.17852H3.67398H3.18669H1.23754C0.554054 5.17852 -1.96266e-05 5.7326 -1.96864e-05 6.41608L-2.00272e-05 10.3144C-2.0087e-05 10.9979 0.554053 11.5519 1.23754 11.5519L5.13584 11.552Z" fill="#DFDFDF"/>
<path fill-rule="evenodd" clip-rule="evenodd" d="M1.70401e-07 17.5839C2.00276e-07 18.2674 0.554074 18.8215 1.23756 18.8215H3.18671H3.87141C3.87554 18.8214 3.87967 18.8214 3.88381 18.8214C4.5988 18.8214 5.17841 19.401 5.17841 20.116C5.17841 20.1478 5.17726 20.1793 5.17502 20.2105L5.17841 20.2157V20.863V22.7623C5.17841 23.4458 5.73247 23.9999 6.41596 23.9999H10.3143C10.9977 23.9999 11.5518 23.4458 11.5518 22.7623V18.8641C11.5518 18.1805 10.9977 17.6265 10.3143 17.6265H8.36512H7.87783H7.682C7.67731 17.6265 7.67261 17.6266 7.66789 17.6266C7.66318 17.6266 7.65847 17.6265 7.65378 17.6265H7.63418L7.6339 17.6261C6.9459 17.6084 6.39142 17.0539 6.37373 16.3658L6.37342 16.3658V16.3504C6.37333 16.3442 6.37329 16.3382 6.37329 16.332C6.37329 16.3258 6.37333 16.3196 6.37342 16.3135V16.1221V15.6348V13.6856C6.37342 13.0022 5.81935 12.4481 5.13586 12.4481H1.23756C0.554074 12.4481 -2.98763e-08 13.0022 0 13.6856L1.70401e-07 17.5839Z" fill="#DFDFDF"/>
<path fill-rule="evenodd" clip-rule="evenodd" d="M18.8642 11.5519C18.1806 11.5519 17.6266 10.9977 17.6266 10.3143V8.36511V7.67228V7.66818C17.6266 6.95319 17.047 6.37358 16.332 6.37358C16.3003 6.37358 16.269 6.37472 16.2378 6.37695L16.2324 6.37342H15.5851H13.6857C13.0023 6.37342 12.4482 5.81935 12.4482 5.13586V1.23756C12.4482 0.554073 13.0023 0 13.6857 0H17.5841C18.2675 0 18.8216 0.554073 18.8216 1.23756V3.18671V3.674V3.91764L18.8222 3.91805C18.84 4.60584 19.3943 5.16011 20.0822 5.17793L20.0824 5.17841H20.3261H20.8134H22.7624C23.446 5.17841 24 5.73248 24 6.41596V10.3143C24 10.9977 23.446 11.5519 22.7624 11.5519H18.8642Z" fill="#DFDFDF"/>
<path fill-rule="evenodd" clip-rule="evenodd" d="M24 17.584C24 18.2675 23.446 18.8215 22.7624 18.8215H20.8133H20.1162V18.8217C19.4012 18.8218 18.8216 19.4014 18.8216 20.1163C18.8216 20.148 18.8227 20.1794 18.825 20.2105L18.8216 20.2157V20.863V22.7624C18.8216 23.4458 18.2675 24 17.5841 24H13.6857C13.0023 24 12.4482 23.4458 12.4482 22.7624V18.8641C12.4482 18.1806 13.0023 17.6265 13.6857 17.6265H15.6349H16.1222H16.3658L16.3662 17.626C17.054 17.6082 17.6084 17.0538 17.6262 16.3659L17.6266 16.3658V16.3424C17.6266 16.3389 17.6266 16.3354 17.6266 16.3319C17.6266 16.3284 17.6266 16.325 17.6266 16.3214V16.1222V15.6349V13.6857C17.6266 13.0022 18.1806 12.4481 18.8641 12.4481H22.7624C23.446 12.4481 24 13.0022 24 13.6857V17.584Z" fill="#DFDFDF"/>
</g>
<defs>
<clipPath id="clip0_5_4">
<rect width="24" height="24" fill="white"/>
</clipPath>
</defs>
</svg>
