<svg width="24" height="24" viewBox="0 0 24 24" fill="none" xmlns="http://www.w3.org/2000/svg">
<g clip-path="url(#clip0_5_9)">
<path fill-rule="evenodd" clip-rule="evenodd" d="M11.5518 6.41609C11.5518 5.7326 10.9977 5.17853 10.3143 5.17853H8.36509H7.67979C7.67585 5.17856 7.6719 5.17858 7.66794 5.17858C6.95295 5.17858 6.37334 4.59897 6.37334 3.88398C6.37334 3.85221 6.37448 3.82071 6.37673 3.78951L6.37339 3.78434V3.13704V1.23768C6.37339 0.554196 5.81932 0.000122271 5.13583 0.000122241L1.23753 0.00012207C0.554044 0.00012204 -3.03173e-05 0.554196 -3.03472e-05 1.23768L-3.05176e-05 5.13599C-3.05474e-05 5.81947 0.554043 6.37355 1.23753 6.37355H3.18668H3.67397H3.91761L3.918 6.37405C4.60588 6.39186 5.16024 6.94624 5.17801 7.63413L5.17838 7.63431V7.65422C5.17842 7.65888 5.17845 7.66354 5.17845 7.6682C5.17845 7.67287 5.17842 7.67754 5.17838 7.68219V7.87795V8.36525V10.3144C5.17838 10.9979 5.73245 11.552 6.41594 11.552H10.3143C10.9977 11.552 11.5518 10.9979 11.5518 10.3144V6.41609Z" fill="#DFDFDF"/>
<path fill-rule="evenodd" clip-rule="evenodd" d="M5.13583 24C5.81932 24 6.37339 23.4459 6.37339 22.7624V20.8132V20.1281C6.37336 20.1253 6.37335 20.1224 6.37335 20.1195C6.37335 20.1184 6.37334 20.1173 6.37334 20.1161C6.37334 19.4012 6.95295 18.8216 7.66794 18.8216C7.69969 18.8216 7.73117 18.8227 7.76235 18.8249L7.76758 18.8216H8.41488H10.3143C10.9977 18.8216 11.5518 18.2675 11.5518 17.584V13.6857C11.5518 13.0022 10.9977 12.4481 10.3143 12.4481H6.41594C5.73245 12.4481 5.17838 13.0022 5.17838 13.6857V15.6349V16.1222V16.3181C5.17842 16.3227 5.17845 16.3274 5.17845 16.3321C5.17845 16.3367 5.17842 16.3413 5.17838 16.346V16.3658L5.17802 16.366C5.16027 17.0541 4.60578 17.6085 3.91778 17.6262L3.91762 17.6266H3.90005C3.89466 17.6266 3.88926 17.6267 3.88385 17.6267C3.87844 17.6267 3.87304 17.6266 3.86764 17.6266H3.67397H3.18668H1.23753C0.554044 17.6266 -3.0117e-05 18.1806 -3.01768e-05 18.8641L-3.05176e-05 22.7624C-3.05773e-05 23.4459 0.554044 24 1.23753 24H5.13583Z" fill="#DFDFDF"/>
<path fill-rule="evenodd" clip-rule="evenodd" d="M24 5.13587C24 5.81935 23.446 6.37343 22.7624 6.37343H20.8133H20.1282C20.1258 6.3734 20.1233 6.37339 20.1209 6.37338C20.1194 6.37337 20.1178 6.37337 20.1163 6.37337C19.4013 6.37337 18.8217 6.95298 18.8217 7.66797C18.8217 7.69964 18.8229 7.73105 18.8251 7.76215L18.8216 7.76762V8.41491V10.3143C18.8216 10.9977 18.2675 11.5519 17.5841 11.5519H13.6857C13.0023 11.5519 12.4482 10.9977 12.4482 10.3143V6.41596C12.4482 5.73248 13.0023 5.1784 13.6857 5.1784H15.6349H16.1222H16.3658L16.3662 5.1779C17.054 5.16004 17.6083 4.60571 17.6262 3.91787L17.6266 3.91765V3.674V3.18672V1.23756C17.6266 0.554074 18.1806 -8.15077e-09 18.8641 0L22.7624 4.6486e-08C23.446 5.46368e-08 24 0.554074 24 1.23756V5.13587Z" fill="#DFDFDF"/>
<path fill-rule="evenodd" clip-rule="evenodd" d="M17.5841 12.4481C18.2675 12.4481 18.8216 13.0022 18.8216 13.6857V15.6349V16.332C18.8216 17.047 19.4014 17.6266 20.1163 17.6266C20.1481 17.6266 20.1795 17.6254 20.2106 17.6232L20.2158 17.6265H20.8631H22.7624C23.446 17.6265 24 18.1806 24 18.8641V22.7624C24 23.4458 23.446 24 22.7624 24H18.8641C18.1806 24 17.6266 23.4458 17.6266 22.7624V20.8132V20.3259V20.0823L17.6261 20.082C17.6082 19.3941 17.0539 18.8398 16.3661 18.822L16.3658 18.8215H16.1222H15.6349H13.6857C13.0023 18.8215 12.4482 18.2675 12.4482 17.584V13.6857C12.4482 13.0022 13.0023 12.4481 13.6857 12.4481H17.5841Z" fill="#DFDFDF"/>
</g>
<defs>
<clipPath id="clip0_5_9">
<rect width="24" height="24" fill="white"/>
</clipPath>
</defs>
</svg>
