<svg width="24" height="24" viewBox="0 0 24 24" fill="none" xmlns="http://www.w3.org/2000/svg">
<g clip-path="url(#clip0_5_14)">
<path fill-rule="evenodd" clip-rule="evenodd" d="M17.8594 5.14007C17.8594 5.82412 17.3048 6.37865 16.6208 6.37865H8.3721H7.67443L7.6744 6.37876C6.95883 6.37876 6.37874 6.95885 6.37874 7.67441C6.37874 7.70616 6.37988 7.73763 6.38212 7.76879L6.37877 7.77398V8.4218V10.3227C6.37877 11.0068 5.82424 11.5613 5.14019 11.5613H1.2387C0.554648 11.5613 0.000122272 11.0068 0.000122241 10.3227L0.00012207 6.42123C0.000122041 5.73718 0.554648 5.18265 1.23869 5.18265H3.18944H3.67713H3.87847C3.88135 5.18267 3.88422 5.18268 3.8871 5.18268C3.88999 5.18268 3.89286 5.18267 3.89574 5.18265H3.92097L3.92129 5.18224C4.60975 5.1644 5.16456 4.60954 5.18232 3.92106L5.18277 3.92085V3.67701V3.18932V1.23857C5.18277 0.554527 5.73729 4.75661e-07 6.42134 4.45753e-07L16.6208 0C17.3048 -2.99077e-08 17.8594 0.554527 17.8594 1.23857V5.14007Z" fill="#DFDFDF"/>
<path fill-rule="evenodd" clip-rule="evenodd" d="M24 17.5788C24 18.2628 23.4455 18.8172 22.7614 18.8172H20.8107H20.113V18.8174C19.3974 18.8174 18.8174 19.3975 18.8174 20.1131C18.8174 20.1448 18.8185 20.1762 18.8207 20.2074L18.8174 20.2126V20.8605V22.7614C18.8174 23.4454 18.2628 24 17.5788 24H13.6773C12.9932 24 12.4387 23.4454 12.4387 22.7614V18.8599C12.4387 18.1758 12.9932 17.6213 13.6773 17.6213H15.6281H16.1157H16.3154C16.3188 17.6213 16.3223 17.6213 16.3257 17.6213C16.3291 17.6213 16.3326 17.6213 16.3361 17.6213H16.3596L16.3599 17.6208C17.0483 17.603 17.6032 17.0482 17.621 16.3596L17.6214 16.3595V16.3339C17.6214 16.3311 17.6214 16.3284 17.6214 16.3257C17.6214 16.3229 17.6214 16.3202 17.6214 16.3175V16.1157V15.6279V13.6772C17.6214 12.9932 18.1758 12.4386 18.8599 12.4386H22.7614C23.4455 12.4386 24 12.9932 24 13.6772V17.5788Z" fill="#DFDFDF"/>
<path fill-rule="evenodd" clip-rule="evenodd" d="M17.5788 0C18.2628 -5.98006e-08 18.8174 0.554528 18.8174 1.23857V3.18932V3.88698L18.8175 3.88701C18.8175 4.60258 19.3975 5.18265 20.1131 5.18265C20.1449 5.18265 20.1763 5.18151 20.2074 5.17926L20.2127 5.18265H20.8605H22.7614C23.4455 5.18265 24 5.73718 24 6.42122V16.1327C24 16.8168 23.4455 17.3713 22.7614 17.3713H18.8599C18.1758 17.3713 17.6214 16.8168 17.6214 16.1327V8.37198V7.88429V7.68236C17.6214 7.67968 17.6214 7.67698 17.6214 7.67429C17.6214 7.67159 17.6214 7.66889 17.6214 7.66621V7.64045L17.621 7.64012C17.6031 6.95165 17.0482 6.39682 16.3598 6.37906L16.3596 6.37865H16.3333C16.3308 6.37863 16.3282 6.37863 16.3257 6.37863C16.3231 6.37863 16.3206 6.37863 16.3182 6.37865H16.1157H15.6281H13.6773C12.9932 6.37865 12.4387 5.82412 12.4387 5.14007V1.23857C12.4387 0.554528 12.9932 4.00882e-07 13.6773 3.41081e-07L17.5788 0Z" fill="#DFDFDF"/>
<path d="M3.00253 17.3714C3.00253 19.148 4.44279 20.5883 6.21944 20.5883C7.99608 20.5883 9.43634 19.148 9.43634 17.3714C9.43634 15.5947 7.99608 14.1544 6.21944 14.1544C4.44279 14.1544 3.00253 15.5947 3.00253 17.3714Z" fill="#DFDFDF"/>
</g>
<defs>
<clipPath id="clip0_5_14">
<rect width="24" height="24" fill="white"/>
</clipPath>
</defs>
</svg>
