<svg width="24" height="24" viewBox="0 0 24 24" fill="none" xmlns="http://www.w3.org/2000/svg">
<g clip-path="url(#clip0_5_19)">
<path fill-rule="evenodd" clip-rule="evenodd" d="M13.9082 16.5515C14.5858 16.5515 15.1351 16.0022 15.1351 15.3246V13.3922V12.7011C15.1351 11.9922 15.7098 11.4175 16.4186 11.4175C16.4501 11.4175 16.4813 11.4187 16.5121 11.4209L16.5174 11.4175H17.1591H19.0422C19.7198 11.4175 20.2691 10.8682 20.2691 10.1906V6.32571C20.2691 5.64808 19.7198 5.09875 19.0422 5.09875H15.1772C14.4997 5.09875 13.9504 5.64808 13.9504 6.32571V8.25815V8.74126V8.98281L13.9499 8.98315C13.9323 9.66518 13.3826 10.2149 12.7005 10.2325L12.7003 10.2328H12.687C12.6803 10.2329 12.6736 10.233 12.6668 10.233C12.6601 10.233 12.6534 10.2329 12.6466 10.2328H12.4589H11.9757H10.0433C9.36563 10.2328 8.81631 10.7821 8.81631 11.4597V15.3246C8.81631 16.0022 9.36563 16.5515 10.0433 16.5515H13.9082Z" fill="#DFDFDF"/>
<path fill-rule="evenodd" clip-rule="evenodd" d="M8.8161 5.09183C8.8161 5.76946 9.36544 6.31878 10.0431 6.31878H11.9755H12.6634H12.6666C13.3755 6.31878 13.9501 6.89342 13.9501 7.60228C13.9501 7.63375 13.949 7.66495 13.9468 7.69585L13.9501 7.70101V8.34276V10.2259C13.9501 10.9035 14.4994 11.4528 15.177 11.4528H19.042C19.7196 11.4528 20.2689 10.9035 20.2689 10.2259V6.36095C20.2689 5.68333 19.7196 5.13401 19.042 5.13401H17.1095H16.6264H16.4242C16.4223 5.13402 16.4202 5.13403 16.4183 5.13403C16.4163 5.13403 16.4143 5.13402 16.4124 5.13401H16.3848L16.3845 5.13358C15.7025 5.11597 15.1528 4.56628 15.1352 3.88422L15.1349 3.88405V3.8671C15.1349 3.86158 15.1348 3.85606 15.1348 3.85052C15.1348 3.84499 15.1349 3.83946 15.1349 3.83394V3.6425V3.15939V1.22695C15.1349 0.549324 14.5855 5.4185e-08 13.9079 4.61542e-08L10.0431 0C9.36544 -8.03077e-09 8.8161 0.549324 8.8161 1.22695V5.09183Z" fill="#DFDFDF"/>
<path fill-rule="evenodd" clip-rule="evenodd" d="M8.86049 5.12154C9.53815 5.12457 10.085 5.67634 10.0819 6.35396L10.0734 8.28638L10.0702 8.97749L10.0704 8.97754C10.0673 9.68637 10.6393 10.2636 11.3481 10.2667C11.3795 10.2669 11.4107 10.2659 11.4415 10.2638L11.4467 10.2672L12.0884 10.27L13.9715 10.2784C14.6491 10.2815 15.196 10.8333 15.1929 11.5108L15.1757 15.3758C15.1726 16.0533 14.6209 16.6002 13.9433 16.5972L10.0784 16.5799C9.4008 16.5769 8.85393 16.025 8.85696 15.3475L8.8656 13.415L8.86776 12.9319L8.86864 12.7342C8.86868 12.7308 8.86871 12.7273 8.86873 12.7238C8.86874 12.7204 8.86874 12.717 8.86874 12.7136L8.86884 12.6904L8.86844 12.6901C8.85385 12.008 8.30664 11.4559 7.62467 11.4352L7.62448 11.4349L7.60266 11.4348C7.59877 11.4347 7.59487 11.4347 7.59098 11.4347C7.58707 11.4347 7.58318 11.4347 7.57929 11.4347L7.38293 11.4338L6.89982 11.4316L4.9674 11.423C4.28978 11.4199 3.74292 10.8682 3.74595 10.1906L3.76322 6.32571C3.76626 5.64809 4.31803 5.10123 4.99565 5.10426L8.86049 5.12154Z" fill="#DFDFDF"/>
<path fill-rule="evenodd" clip-rule="evenodd" d="M18.9015 12.5472C18.2239 12.5472 17.6745 13.0966 17.6745 13.7742V15.7067V16.3909V16.3978C17.6745 17.1067 17.0999 17.6813 16.391 17.6813C16.3595 17.6813 16.3283 17.6802 16.2974 17.678L16.2923 17.6812H15.6505H13.7674C13.0898 17.6812 12.5405 18.2305 12.5405 18.9082V22.7731C12.5405 23.4507 13.0898 24 13.7674 24H17.6323C18.31 24 18.8593 23.4507 18.8593 22.7731V20.8406V20.3575V20.116L18.8598 20.1156C18.8774 19.4336 19.427 18.884 20.1091 18.8663L20.1092 18.866H20.1274C20.1325 18.866 20.1377 18.8659 20.1428 18.8659C20.1479 18.8659 20.1531 18.866 20.1582 18.866H20.3508H20.8339H22.7663C23.4439 18.866 23.9933 18.3167 23.9933 17.6391V13.7742C23.9933 13.0966 23.4439 12.5472 22.7663 12.5472H18.9015Z" fill="#DFDFDF"/>
<path fill-rule="evenodd" clip-rule="evenodd" d="M6.36096 23.9872C5.68333 23.9872 5.13401 23.4379 5.13401 22.7603V20.8278V20.1367H5.13387C5.13386 19.4278 4.55922 18.8532 3.85037 18.8532C3.81895 18.8532 3.78779 18.8544 3.75694 18.8566L3.75178 18.8532H3.11002H1.22694C0.549323 18.8532 0 18.3038 0 17.6262V13.7614C0 13.0837 0.549323 12.5344 1.22694 12.5344H5.09183C5.76946 12.5344 6.31878 13.0837 6.31878 13.7614V15.6938V16.1769V16.3733C6.31875 16.3772 6.31873 16.3811 6.31873 16.3849C6.31873 16.3887 6.31875 16.3926 6.31878 16.3964V16.4185L6.31917 16.4187C6.33685 17.1008 6.8865 17.6504 7.56851 17.6679L7.56873 17.6684H7.81029H8.2934H10.2258C10.9035 17.6684 11.4528 18.2177 11.4528 18.8953V22.7603C11.4528 23.4379 10.9035 23.9872 10.2258 23.9872H6.36096Z" fill="#DFDFDF"/>
</g>
<defs>
<clipPath id="clip0_5_19">
<rect width="24" height="24" fill="white"/>
</clipPath>
</defs>
</svg>
