<svg width="260" height="260" viewBox="0 0 260 260" fill="none" xmlns="http://www.w3.org/2000/svg">
<path fill-rule="evenodd" clip-rule="evenodd" d="M55.6383 125.146C63.0427 125.146 69.0452 119.143 69.0452 111.739L69.0452 90.6228L69.0452 83.108L69.0451 83.0703C69.0451 75.3246 75.3243 69.0455 83.07 69.0455C83.414 69.0455 83.7552 69.0579 84.0931 69.0822L84.1488 69.0461L91.1613 69.0461L111.738 69.0461C119.142 69.0461 125.145 63.0437 125.145 55.6393L125.145 13.4076C125.145 6.00322 119.142 0.000754785 111.738 0.000754138L69.506 0.000750446C62.1016 0.000749799 56.0992 6.00321 56.0992 13.4076L56.0992 34.5234L56.0992 39.8024L56.0992 42.4419L56.0934 42.4463C55.9002 49.898 49.8947 55.9033 42.4429 56.0961L42.4409 56.1001L42.2174 56.1001C42.1694 56.1006 42.1214 56.1008 42.0733 56.1008C42.0252 56.1008 41.9772 56.1006 41.9292 56.1001L39.8014 56.1001L34.5225 56.1001L13.4067 56.1001C6.00225 56.1001 -0.000215741 62.1026 -0.000216388 69.507L-0.00022008 111.739C-0.000220728 119.143 6.00224 125.145 13.4067 125.145L55.6383 125.146Z" fill="white"/>
<path fill-rule="evenodd" clip-rule="evenodd" d="M-3.03821e-06 190.493C-2.71456e-06 197.897 6.00246 203.9 13.4069 203.9L34.5227 203.9L41.9403 203.9C41.985 203.899 42.0298 203.899 42.0746 203.899C49.8203 203.899 56.0994 210.178 56.0994 217.924C56.0994 218.268 56.087 218.609 56.0627 218.947L56.0994 219.004L56.0994 226.016L56.0994 246.592C56.0994 253.997 62.1018 259.999 69.5062 259.999L111.738 259.999C119.142 259.999 125.145 253.997 125.145 246.592L125.145 204.361C125.145 196.956 119.142 190.954 111.738 190.954L90.6221 190.954L85.3431 190.954L83.2217 190.954C83.1708 190.954 83.1199 190.955 83.0688 190.955C83.0178 190.955 82.9668 190.954 82.9159 190.954L82.7036 190.954L82.7006 190.95C75.2472 190.758 69.2404 184.751 69.0487 177.297L69.0454 177.296L69.0454 177.13C69.0444 177.063 69.044 176.997 69.044 176.93C69.044 176.863 69.0444 176.796 69.0454 176.73L69.0454 174.656L69.0454 169.377L69.0454 148.261C69.0454 140.857 63.0429 134.855 55.6385 134.855L13.4069 134.855C6.00246 134.855 -5.20788e-06 140.857 -4.88422e-06 148.261L-3.03821e-06 190.493Z" fill="white"/>
<path fill-rule="evenodd" clip-rule="evenodd" d="M204.362 125.145C196.957 125.145 190.955 119.142 190.955 111.738V90.6218V83.1161L190.955 83.0717C190.955 75.326 184.676 69.0469 176.93 69.0469C176.587 69.0469 176.247 69.0592 175.91 69.0834L175.851 69.0452H168.839H148.262C140.858 69.0452 134.855 63.0427 134.855 55.6383V13.4067C134.855 6.00224 140.858 -0.000221252 148.262 -0.000221252H190.494C197.898 -0.000221252 203.901 6.00224 203.901 13.4067V34.5225V39.8014V42.4409L203.907 42.4453C204.1 49.8964 210.105 55.901 217.557 56.094L217.559 56.0992H220.199H225.478H246.593C253.998 56.0992 260 62.1016 260 69.506V111.738C260 119.142 253.998 125.145 246.593 125.145H204.362Z" fill="white"/>
<path fill-rule="evenodd" clip-rule="evenodd" d="M260 190.494C260 197.898 253.998 203.9 246.593 203.9L225.477 203.9L217.925 203.9L217.925 203.902C210.18 203.903 203.901 210.182 203.901 217.927C203.901 218.27 203.913 218.61 203.938 218.947L203.901 219.004L203.901 226.016L203.901 246.593C203.901 253.997 197.898 260 190.494 260L148.262 260C140.858 260 134.855 253.997 134.855 246.593L134.855 204.361C134.855 196.957 140.858 190.954 148.262 190.954L169.378 190.954L174.657 190.954L177.296 190.954L177.3 190.949C184.752 190.756 190.758 184.75 190.95 177.298L190.955 177.296L190.955 177.043C190.955 177.005 190.955 176.967 190.955 176.929C190.955 176.891 190.955 176.854 190.955 176.816L190.955 174.657L190.955 169.378L190.955 148.262C190.955 140.857 196.957 134.855 204.361 134.855L246.593 134.855C253.998 134.855 260 140.857 260 148.262L260 190.494Z" fill="#FF3D6C"/>
</svg>
