<svg width="260" height="260" viewBox="0 0 260 260" fill="none" xmlns="http://www.w3.org/2000/svg">
<path fill-rule="evenodd" clip-rule="evenodd" d="M125.145 69.507C125.145 62.1026 119.142 56.1001 111.738 56.1001L90.6218 56.1001L83.1978 56.1001C83.1551 56.1005 83.1123 56.1007 83.0694 56.1007C75.3237 56.1007 69.0445 49.8216 69.0445 42.0759C69.0445 41.7317 69.0569 41.3904 69.0813 41.0524L69.0451 40.9964L69.0451 33.984L69.0451 13.4076C69.0451 6.00319 63.0427 0.000729707 55.6382 0.000729384L13.4066 0.000727538C6.00217 0.000727214 -0.000305438 6.00319 -0.000305762 13.4076L-0.000307608 55.6393C-0.000307931 63.0437 6.00216 69.0462 13.4066 69.0462L34.5224 69.0462L39.8014 69.0462L42.4408 69.0462L42.445 69.0516C49.897 69.2445 55.9026 75.2503 56.0951 82.7025L56.0991 82.7044L56.0991 82.9201C56.0996 82.9706 56.0999 83.0211 56.0999 83.0716C56.0999 83.1222 56.0996 83.1727 56.0991 83.2231L56.0991 85.3439L56.0991 90.6229L56.0991 111.739C56.0991 119.143 62.1016 125.146 69.506 125.146L111.738 125.146C119.142 125.146 125.145 119.143 125.145 111.739L125.145 69.507Z" fill="black"/>
<path fill-rule="evenodd" clip-rule="evenodd" d="M55.6382 259.999C63.0427 259.999 69.0451 253.997 69.0451 246.592L69.0451 225.476L69.0451 218.054C69.0448 218.023 69.0447 217.992 69.0446 217.961C69.0446 217.949 69.0445 217.937 69.0445 217.924C69.0445 210.179 75.3237 203.9 83.0694 203.9C83.4133 203.9 83.7544 203.912 84.0921 203.936L84.1488 203.9L91.1612 203.9L111.738 203.9C119.142 203.9 125.145 197.897 125.145 190.493L125.145 148.261C125.145 140.857 119.142 134.854 111.738 134.854L69.506 134.854C62.1016 134.854 56.0991 140.857 56.0991 148.261L56.0991 169.377L56.0991 174.656L56.0991 176.779C56.0996 176.829 56.0999 176.88 56.0999 176.93C56.0999 176.98 56.0996 177.03 56.0991 177.081L56.0991 177.295L56.0952 177.298C55.9029 184.752 49.896 190.758 42.4426 190.95L42.4409 190.954L42.2506 190.954C42.1922 190.954 42.1337 190.955 42.0751 190.955C42.0165 190.955 41.958 190.954 41.8995 190.954L39.8014 190.954L34.5224 190.954L13.4066 190.954C6.00217 190.954 -0.000299664 196.956 -0.000300312 204.36L-0.000304004 246.592C-0.000304651 253.997 6.00217 259.999 13.4066 259.999L55.6382 259.999Z" fill="black"/>
<path fill-rule="evenodd" clip-rule="evenodd" d="M260 55.6385C260 63.0429 253.998 69.0454 246.593 69.0454L225.477 69.0454L218.055 69.0454C218.029 69.0451 218.002 69.045 217.976 69.0449C217.96 69.0448 217.943 69.0448 217.927 69.0448C210.181 69.0448 203.902 75.3239 203.902 83.0696C203.902 83.4127 203.915 83.753 203.939 84.0899L203.901 84.1491L203.901 91.1615L203.901 111.738C203.901 119.142 197.898 125.145 190.494 125.145L148.262 125.145C140.858 125.145 134.855 119.142 134.855 111.738L134.855 69.5062C134.855 62.1018 140.858 56.0993 148.262 56.0993L169.378 56.0993L174.657 56.0993L177.296 56.0993L177.3 56.0939C184.752 55.9004 190.757 49.8951 190.95 42.4435L190.955 42.4411L190.955 39.8016L190.955 34.5227L190.955 13.4068C190.955 6.00241 196.957 -6.17869e-05 204.361 -6.16986e-05L246.593 -6.1195e-05C253.998 -6.11067e-05 260 6.00241 260 13.4068L260 55.6385Z" fill="#FF3D6C"/>
<path fill-rule="evenodd" clip-rule="evenodd" d="M190.494 134.855C197.898 134.855 203.901 140.857 203.901 148.262L203.901 169.378L203.901 176.93L203.902 176.93C203.902 184.676 210.182 190.955 217.927 190.955C218.271 190.955 218.611 190.942 218.948 190.918L219.004 190.954L226.017 190.954L246.593 190.954C253.998 190.954 260 196.957 260 204.361L260 246.593C260 253.997 253.998 260 246.593 260L204.361 260C196.957 260 190.955 253.997 190.955 246.593L190.955 225.477L190.955 220.198L190.955 217.559L190.949 217.555C190.756 210.103 184.751 204.098 177.299 203.905L177.296 203.9L174.657 203.9L169.378 203.9L148.262 203.9C140.858 203.9 134.855 197.898 134.855 190.494L134.855 148.262C134.855 140.857 140.858 134.855 148.262 134.855L190.494 134.855Z" fill="black"/>
</svg>
