<svg width="260" height="260" viewBox="0 0 260 260" fill="none" xmlns="http://www.w3.org/2000/svg">
<path fill-rule="evenodd" clip-rule="evenodd" d="M193.477 55.6838C193.477 63.0943 187.469 69.1017 180.059 69.1017L90.6978 69.1017L83.1397 69.1017L83.1394 69.1029C75.3874 69.1029 69.1031 75.3872 69.1031 83.1392C69.1031 83.4831 69.1154 83.824 69.1397 84.1616L69.1034 84.2178L69.1034 91.2359L69.1034 111.829C69.1034 119.24 63.096 125.247 55.6855 125.247L13.4193 125.247C6.00877 125.247 0.00140355 119.24 0.00140322 111.829L0.00140137 69.563C0.00140105 62.1525 6.00877 56.1451 13.4192 56.1451L34.5524 56.1451L39.8357 56.1451L42.0168 56.1451C42.048 56.1453 42.0791 56.1454 42.1103 56.1454C42.1416 56.1454 42.1727 56.1453 42.2039 56.1451L42.4773 56.1451L42.4807 56.1406C49.939 55.9474 55.9495 49.9364 56.1419 42.4779L56.1468 42.4756L56.1468 39.834L56.1468 34.5507L56.1468 13.4176C56.1468 6.00709 62.1541 -0.000284177 69.5646 -0.000284501L180.059 -0.00028933C187.469 -0.000289654 193.477 6.00709 193.477 13.4176L193.477 55.6838Z" fill="white"/>
<path fill-rule="evenodd" clip-rule="evenodd" d="M260 190.437C260 197.847 253.993 203.854 246.582 203.854L225.449 203.854L217.891 203.854L217.891 203.856C210.139 203.856 203.855 210.14 203.855 217.892C203.855 218.236 203.867 218.576 203.891 218.914L203.855 218.97L203.855 225.989L203.855 246.582C203.855 253.992 197.847 260 190.437 260L148.171 260C140.76 260 134.753 253.992 134.753 246.582L134.753 204.316C134.753 196.905 140.76 190.898 148.171 190.898L169.304 190.898L174.587 190.898L176.75 190.898C176.787 190.898 176.825 190.898 176.862 190.898C176.899 190.898 176.936 190.898 176.974 190.898L177.229 190.898L177.232 190.893C184.69 190.7 190.701 184.689 190.894 177.23L190.898 177.228L190.898 176.951C190.898 176.921 190.898 176.891 190.898 176.862C190.898 176.832 190.898 176.803 190.898 176.773L190.898 174.587L190.898 169.303L190.898 148.17C190.898 140.76 196.905 134.752 204.316 134.752L246.582 134.752C253.993 134.752 260 140.76 260 148.17L260 190.437Z" fill="white"/>
<path fill-rule="evenodd" clip-rule="evenodd" d="M190.437 6.08141e-06C197.847 5.43357e-06 203.855 6.00739 203.855 13.4179L203.855 34.551L203.855 42.109L203.856 42.1093C203.856 49.8613 210.14 56.1454 217.892 56.1454C218.236 56.1454 218.577 56.133 218.914 56.1087L218.971 56.1454L225.989 56.1454L246.582 56.1454C253.993 56.1454 260 62.1528 260 69.5632L260 174.771C260 182.182 253.993 188.189 246.582 188.189L204.316 188.189C196.905 188.189 190.898 182.182 190.898 174.771L190.898 90.6964L190.898 85.4131L190.898 83.2256C190.898 83.1965 190.898 83.1673 190.898 83.1381C190.898 83.1089 190.898 83.0797 190.898 83.0506L190.898 82.7715L190.894 82.768C190.7 75.3096 184.689 69.2989 177.231 69.1065L177.229 69.102L176.944 69.102C176.917 69.1018 176.889 69.1018 176.862 69.1018C176.834 69.1018 176.807 69.1018 176.78 69.102L174.587 69.102L169.304 69.102L148.171 69.102C140.76 69.102 134.753 63.0946 134.753 55.6841L134.753 13.4179C134.753 6.00739 140.76 1.04243e-05 148.171 9.77645e-06L190.437 6.08141e-06Z" fill="white"/>
<rect x="102.227" y="223.039" width="69.6996" height="69.6996" rx="34.8498" transform="rotate(-180 102.227 223.039)" fill="white"/>
</svg>
