<svg width="260" height="260" viewBox="0 0 260 260" fill="none" xmlns="http://www.w3.org/2000/svg">
<path fill-rule="evenodd" clip-rule="evenodd" d="M150.672 179.308C158.013 179.308 163.964 173.357 163.964 166.016V145.082V137.595C163.964 129.915 170.189 123.69 177.868 123.69C178.209 123.69 178.547 123.702 178.881 123.726L178.938 123.69H185.89H206.29C213.631 123.69 219.582 117.739 219.582 110.398V68.5284C219.582 61.1874 213.631 55.2364 206.29 55.2364H164.42C157.08 55.2364 151.129 61.1874 151.129 68.5284V89.4632V94.6969V97.3137L151.124 97.3174C150.933 104.706 144.978 110.661 137.589 110.852L137.587 110.855H137.443C137.37 110.856 137.297 110.857 137.224 110.857C137.151 110.857 137.078 110.856 137.005 110.855H134.971H129.737H108.802C101.461 110.855 95.5101 116.806 95.5101 124.147V166.016C95.5101 173.357 101.461 179.308 108.802 179.308H150.672Z" fill="white"/>
<path fill-rule="evenodd" clip-rule="evenodd" d="M95.5078 55.1614C95.5078 62.5023 101.459 68.4533 108.8 68.4533L129.735 68.4533L137.187 68.4533L137.222 68.4533C144.901 68.4533 151.126 74.6786 151.126 82.3579C151.126 82.6988 151.114 83.0368 151.09 83.3716L151.126 83.4275L151.126 90.3798L151.126 110.78C151.126 118.121 157.077 124.072 164.418 124.072L206.288 124.072C213.629 124.072 219.58 118.121 219.58 110.78L219.58 68.9102C219.58 61.5693 213.629 55.6183 206.288 55.6183L185.353 55.6183L180.119 55.6183L177.929 55.6183C177.908 55.6184 177.886 55.6185 177.865 55.6185C177.843 55.6185 177.822 55.6184 177.801 55.6183L177.502 55.6183L177.499 55.6137C170.11 55.4229 164.155 49.4679 163.965 42.0789L163.961 42.0771L163.961 41.8935C163.961 41.8337 163.96 41.7738 163.96 41.7138C163.96 41.6539 163.961 41.594 163.961 41.5342L163.961 39.4603L163.961 34.2266L163.961 13.2918C163.961 5.95087 158.01 -0.000136818 150.669 -0.000136905L108.8 -0.000137405C101.459 -0.000137492 95.5078 5.95087 95.5078 13.2918L95.5078 55.1614Z" fill="white"/>
<path fill-rule="evenodd" clip-rule="evenodd" d="M95.9887 55.4837C103.33 55.5165 109.254 61.494 109.221 68.8349L109.128 89.7695L109.094 97.2565L109.096 97.257C109.062 104.936 115.259 111.189 122.938 111.223C123.278 111.225 123.616 111.214 123.95 111.192L124.006 111.228L130.958 111.259L151.358 111.35C158.699 111.383 164.623 117.361 164.59 124.701L164.403 166.571C164.37 173.911 158.393 179.836 151.052 179.803L109.183 179.616C101.842 179.583 95.9176 173.605 95.9504 166.265L96.044 145.33L96.0674 140.096L96.077 137.954C96.0774 137.917 96.0777 137.879 96.0779 137.842C96.0781 137.805 96.0781 137.768 96.078 137.731L96.0791 137.48L96.0748 137.476C95.9168 130.087 89.9886 124.106 82.6006 123.882L82.5986 123.878L82.3622 123.877C82.32 123.876 82.2778 123.876 82.2356 123.876C82.1933 123.876 82.1511 123.876 82.109 123.876L79.9818 123.866L74.7481 123.843L53.8135 123.749C46.4727 123.716 40.5483 117.739 40.5812 110.398L40.7683 68.5289C40.8012 61.188 46.7787 55.2637 54.1196 55.2965L95.9887 55.4837Z" fill="white"/>
<path fill-rule="evenodd" clip-rule="evenodd" d="M204.766 135.928C197.425 135.928 191.474 141.879 191.474 149.22L191.474 170.155L191.474 177.568L191.474 177.642C191.474 185.322 185.249 191.547 177.569 191.547C177.228 191.547 176.89 191.535 176.555 191.511L176.5 191.546L169.547 191.546L149.147 191.546C141.806 191.546 135.855 197.497 135.855 204.838L135.855 246.708C135.855 254.049 141.806 260 149.147 260L191.017 260C198.358 260 204.309 254.049 204.309 246.708L204.309 225.773L204.309 220.539L204.309 217.923L204.314 217.919C204.505 210.53 210.459 204.576 217.848 204.385L217.85 204.381L218.047 204.381C218.102 204.381 218.158 204.38 218.214 204.38C218.269 204.38 218.325 204.381 218.38 204.381L220.467 204.381L225.701 204.381L246.635 204.381C253.976 204.381 259.927 198.43 259.927 191.09L259.927 149.22C259.927 141.879 253.976 135.928 246.635 135.928L204.766 135.928Z" fill="white"/>
<path fill-rule="evenodd" clip-rule="evenodd" d="M68.9104 259.862C61.5694 259.862 55.6184 253.911 55.6184 246.57V225.635V218.148L55.6169 218.148C55.6168 210.468 49.3915 204.243 41.7123 204.243C41.372 204.243 41.0344 204.256 40.7002 204.28L40.6443 204.243H33.6919H13.2919C5.951 204.243 0 198.292 0 190.951V149.082C0 141.741 5.951 135.79 13.2919 135.79H55.1615C62.5025 135.79 68.4535 141.741 68.4535 149.082V170.017V175.25V177.378C68.4531 177.42 68.4529 177.462 68.4529 177.503C68.4529 177.545 68.4531 177.587 68.4535 177.628V177.867L68.4577 177.87C68.6492 185.259 74.6037 191.213 81.9922 191.403L81.9946 191.408H84.6115H89.8452H110.78C118.121 191.408 124.072 197.359 124.072 204.7V246.57C124.072 253.911 118.121 259.862 110.78 259.862H68.9104Z" fill="white"/>
</svg>
